<?xml version="1.0" encoding="utf-8"?>
<!-- Generator: Adobe Illustrator 17.1.0, SVG Export Plug-In . SVG Version: 6.00 Build 0)  -->
<!DOCTYPE svg PUBLIC "-//W3C//DTD SVG 1.1//EN" "http://www.w3.org/Graphics/SVG/1.1/DTD/svg11.dtd">
<svg version="1.1" id="Layer_1" xmlns="http://www.w3.org/2000/svg" xmlns:xlink="http://www.w3.org/1999/xlink" x="0px" y="0px"
	 viewBox="156.7 213.2 300.6 372" enable-background="new 156.7 213.2 300.6 372" xml:space="preserve">
<path fill="#327477" d="M457.3,554c0,4.7-3.8,8.4-8.4,8.4H165.2c-4.7,0-8.4-3.8-8.4-8.4V221.6c0-4.7,3.8-8.4,8.4-8.4h283.7
	c4.7,0,8.4,3.8,8.4,8.4V554z"/>
<path fill="#3B7F89" d="M457.3,576.8c0,4.7-3.8,8.4-8.4,8.4H181.1V271.5h267.7c4.7,0,8.4,3.8,8.4,8.4L457.3,576.8L457.3,576.8
	L457.3,576.8z"/>
<rect x="177.7" y="267.1" fill="#4699A1" width="5.1" height="318.1"/>
<path fill="#2A646E" d="M178.6,213.2h-13.4c-4.7,0-8.4,3.8-8.4,8.4v355.2c0,4.7,3.8,8.4,8.4,8.4h13.4V213.2z"/>
<path fill="#E9E9EA" d="M442.1,271.4H185.6c-8.7,0-15.8-7.1-15.8-15.8v-10.4c0-8.7,7.1-15.8,15.8-15.8h240.7
	c8.7,0,15.8,7.1,15.8,15.8V271.4z"/>
<g>
	<path fill="#2A646E" d="M367.3,414.9h-94.9c-11.2,0-20.3-9.1-20.3-20.3v-49.3c0-11.2,9.1-20.3,20.3-20.3h94.9
		c11.2,0,20.3,9.1,20.3,20.3v49.3C387.6,405.7,378.5,414.9,367.3,414.9z"/>
	<path fill="#2A646E" d="M399.9,465.6c0,3.6-2.8,6.6-6.3,6.6H243.3c-3.5,0-6.3-3-6.3-6.6l0,0c0-3.7,2.8-6.6,6.3-6.6h150.2
		C397.1,459,399.9,461.9,399.9,465.6L399.9,465.6z"/>
	<path fill="#2A646E" d="M399.9,490.1c0,3.6-2.8,6.6-6.3,6.6H243.3c-3.5,0-6.3-3-6.3-6.6l0,0c0-3.6,2.8-6.6,6.3-6.6h150.2
		C397.1,483.5,399.9,486.4,399.9,490.1L399.9,490.1z"/>
	<path fill="#2A646E" d="M373.2,526.5c0,2.4-1.9,4.4-4.3,4.4H268c-2.4,0-4.3-2-4.3-4.4l0,0c0-2.4,1.9-4.4,4.3-4.4h101
		C371.3,522.1,373.2,524.1,373.2,526.5L373.2,526.5z"/>
</g>
</svg>
