<?xml version="1.0" encoding="utf-8"?>
<!-- Generator: Adobe Illustrator 17.1.0, SVG Export Plug-In . SVG Version: 6.00 Build 0)  -->
<!DOCTYPE svg PUBLIC "-//W3C//DTD SVG 1.1//EN" "http://www.w3.org/Graphics/SVG/1.1/DTD/svg11.dtd">
<svg version="1.1" id="Layer_1" xmlns="http://www.w3.org/2000/svg" xmlns:xlink="http://www.w3.org/1999/xlink" x="0px" y="0px"
	 viewBox="97.3 252.3 417.4 287.4" enable-background="new 97.3 252.3 417.4 287.4" xml:space="preserve">
<path fill="#010101" d="M171.8,267c0-8.1-3.6-14.7-8-14.7H130c-4.4,0-8,6.5-8,14.7c0,8.1,3.6,14.7,8,14.7h33.8
	C168.1,281.7,171.8,275.1,171.8,267"/>
<g>
	<path fill="#202121" d="M514.7,316.6c0-14.2-11.5-25.8-25.7-25.8H123.1c-14.2,0-25.7,11.5-25.7,25.8v191.3
		c0,14.2,11.5,25.7,25.7,25.7h365.8c14.2,0,25.7-11.5,25.7-25.7V316.6H514.7z"/>
	<path fill="#202121" d="M277,298.3c0-17.3-11.7-31.2-26-31.2H123.3c-14.4,0-26,14.1-26,31.2v74.2c0,17.3,11.6,31.2,26,31.2h127.5
		c14.3,0,26-13.9,26-31.2v-74.2H277z"/>
</g>
<path fill="#010101" d="M434.1,411.5c0-70.8-57.4-128.1-128.1-128.1s-128.1,57.4-128.1,128.1S235.2,539.7,306,539.7
	S434.1,482.3,434.1,411.5"/>
<path fill="#231F20" d="M427.6,411.5c0-67.2-54.4-121.6-121.6-121.6s-121.6,54.4-121.6,121.6c0,67.1,54.5,121.6,121.6,121.6
	S427.6,478.8,427.6,411.5"/>
<path fill="#979797" d="M421.1,411.5c0-63.5-51.6-115.1-115.1-115.1S190.9,348,190.9,411.5S242.5,526.6,306,526.6
	S421.1,475.1,421.1,411.5"/>
<path fill="#231F20" d="M415.9,411.5c0-60.7-49.2-109.9-109.9-109.9s-109.9,49.2-109.9,109.9S245.3,521.4,306,521.4
	S415.9,472.2,415.9,411.5"/>
<path fill="#010101" d="M407.8,411.5c0-55.7-45.3-101-101-101s-101,45.3-101,101s45.3,101,101,101S407.8,467.3,407.8,411.5"/>
<path fill="#231F20" d="M402.6,411.5c0-52.9-42.9-95.8-95.8-95.8s-95.8,42.9-95.8,95.8s42.9,95.8,95.8,95.8S402.6,464.5,402.6,411.5
	"/>
<path fill="#595A5C" d="M397.5,411.5c0-50.1-40.6-90.8-90.8-90.8c-50.1,0-90.8,40.7-90.8,90.8s40.6,90.8,90.8,90.8
	C356.8,502.3,397.5,461.6,397.5,411.5"/>
<path fill="#231F20" d="M393.4,411.5c0-47.9-38.9-86.7-86.7-86.7S220,363.7,220,411.5s38.9,86.7,86.7,86.7S393.4,459.4,393.4,411.5"
	/>
<path fill="#A5B6B9" d="M381.9,411.5c0-41.4-33.7-75.1-75.1-75.1s-75.1,33.7-75.1,75.1c0,41.6,33.7,75.1,75.1,75.1
	S381.9,453.1,381.9,411.5"/>
<path fill="#FFFFFF" d="M317.3,386.3c0,20-16.2,36-36,36c-20,0-36-16.2-36-36s16.2-36,36-36C301.2,350.2,317.3,366.4,317.3,386.3"/>
<g>
	<path fill="#66B9CC" d="M120.5,281.7c-5.2,0-9.4,4.2-9.4,9.4v7v0.5l17-17h-7.6C120.5,281.5,120.5,281.7,120.5,281.7z"/>
	<path fill="#66B9CC" d="M193.1,291c0-5.2-4.2-9.4-9.4-9.4h-12.3l-53.8,53.8c0.9,0.2,1.9,0.5,2.8,0.5H165l28.1-28.1V291z"/>
</g>
<g>
	<path fill="#D7E4F4" d="M128,281.7l-17,17v6.9v20.8c0,4.2,2.7,7.8,6.5,8.9l53.8-53.8H128C128,281.5,128,281.7,128,281.7z"/>
	<path fill="#D7E4F4" d="M193.1,326.6v-18.6L165,336.1h18.6C189,335.9,193.1,331.7,193.1,326.6"/>
</g>
</svg>
