<?xml version="1.0" encoding="utf-8"?>
<!-- Generator: Adobe Illustrator 17.1.0, SVG Export Plug-In . SVG Version: 6.00 Build 0)  -->
<!DOCTYPE svg PUBLIC "-//W3C//DTD SVG 1.1//EN" "http://www.w3.org/Graphics/SVG/1.1/DTD/svg11.dtd">
<svg version="1.1" id="Layer_1" xmlns="http://www.w3.org/2000/svg" xmlns:xlink="http://www.w3.org/1999/xlink" x="0px" y="0px"
	 viewBox="0 90 612 612" enable-background="new 0 90 612 612" xml:space="preserve">
<path fill="#40596B" d="M377.4,90H25.5C11.5,90,0,101.5,0,115.5v561c0,14,11.5,25.5,25.5,25.5h351.9c14,0,25.5-11.5,25.5-25.5v-561
	C402.9,101.5,391.4,90,377.4,90z"/>
<rect x="32.6" y="162.8" fill="#84DBFF" width="339.2" height="445"/>
<g>
	<path fill="#334A5E" d="M229.5,639.5H167c-7.6,0-14,6.4-14,14c0,7.7,6.4,14,14,14h62.5c7.6,0,14-6.4,14-14
		C243.5,645.9,237.1,639.5,229.5,639.5z"/>
	<path fill="#334A5E" d="M252.5,120.6h-102c-3.8,0-6.4,2.6-6.4,6.4c0,3.8,2.6,6.4,6.4,6.4h102c3.8,0,6.4-2.6,6.4-6.4
		C258.8,123.1,256.3,120.6,252.5,120.6z"/>
</g>
<path fill="#F2F2F2" d="M585.2,235.3H274.1c-15.3,0-26.8,12.8-26.8,26.8v178.5c0,15.3,12.8,26.8,26.8,26.8h10.2v66.3l57.4-66.3
	h243.5c15.3,0,26.8-12.8,26.8-26.8V262.1C612,246.8,599.2,235.3,585.2,235.3z"/>
<g>
	<circle fill="#54C0EB" cx="337.9" cy="351.4" r="29.3"/>
	<circle fill="#54C0EB" cx="429.7" cy="351.4" r="29.3"/>
	<circle fill="#54C0EB" cx="520.2" cy="351.4" r="29.3"/>
</g>
</svg>
