<?xml version="1.0" encoding="utf-8"?>
<!-- Generator: Adobe Illustrator 17.1.0, SVG Export Plug-In . SVG Version: 6.00 Build 0)  -->
<!DOCTYPE svg PUBLIC "-//W3C//DTD SVG 1.1//EN" "http://www.w3.org/Graphics/SVG/1.1/DTD/svg11.dtd">
<svg version="1.1" id="Layer_1" xmlns="http://www.w3.org/2000/svg" xmlns:xlink="http://www.w3.org/1999/xlink" x="0px" y="0px"
	 viewBox="106.4 281 399.3 229.9" enable-background="new 106.4 281 399.3 229.9" xml:space="preserve">
<path fill="#323636" d="M116.2,470.4c-8,11-11.2,16.3-9.3,20.2c2.8,5.7,15.8,8.8,25.9,10.2c56.1,8.1,197.3,12.1,262,9.1
	c0,0,43.2-1,43.2-6.5C438,469.9,152.2,420.7,116.2,470.4z"/>
<path fill="#FFFFFF" d="M250.1,341.9v-21.6c0,0-0.6-12,15.4-15.9H323L250.1,341.9z"/>
<polygon fill="#C9D9D6" points="239.2,360.6 214.4,371.1 214.4,340.5 239.2,340.5 "/>
<ellipse fill="#FFFFFF" cx="226.7" cy="340.5" rx="12.3" ry="1.1"/>
<rect x="219" y="333" fill="#C9D9D6" width="15.4" height="7.2"/>
<ellipse fill="#FFFFFF" cx="226.7" cy="333" rx="7.6" ry="0.6"/>
<ellipse fill="#C9D9D6" cx="226.7" cy="340.3" rx="7.6" ry="0.6"/>
<path fill="#E1EAE8" d="M108.5,479.6c-2-3.9,2.8-9,10.7-20c36-49.7,162.3-177.5,311.6-178.6c4.9,0,10.5,0.2,13.7,1.4
	c3.6,1.2,4.4,1.9,7,6.8c13.3,25.2,42.7,104.3,52,142.8c3,12.3,2.5,14.2,0.2,17.3c-4.1,5.8-8.9,6-19.6,8.5
	c-11.1,2.6-23.2,5.6-38.9,11.7C429.6,475.9,111.5,485.3,108.5,479.6z"/>
<path fill="#334D5C" d="M108.5,479.6c1,2,1.7,4.1,4.3,5.6c4.9,2.6,13.3,3.8,19.9,4.7c59.2,8.5,213.5,12.6,272.2,8.5
	c23.9-1.6,24.7-22.6,40.5-28.7C429.6,475.9,111.5,485.3,108.5,479.6z"/>
<path fill="#4ABC96" d="M289.8,354.3c34.5-23.6,77.6-42.4,124-43.4c5.3-0.1,11.7,2,13.3,5.3c6.2,12.6,11.3,29.6,13.6,40
	c1.7,8-5.4,15-12.5,16.7c-7.2,1.6-84,24.7-134.8,37.4c-14.3,3.6-27-6.7-29.6-18.4C260.9,378.4,270.2,367.8,289.8,354.3z"/>
<path fill="#FFFFFF" d="M358.2,387.5l-58.3,15.8c0,0,1.1,5.2,1.1,5.1c0,0,35.8-9.5,58.5-15.9L358.2,387.5z"/>
<path fill="#C9D9D6" d="M351,382.9l-47.1,13.2c-3.1,0.9-4.9,4.1-4.1,7.2v0.1c17.9-4.6,39.2-10.4,58.3-15.8l-0.1-0.5
	C357.2,383.9,354,382.1,351,382.9z"/>
<path fill="#B1BCBA" d="M484.2,457.9c10.9-2.5,15.5-2.7,19.6-8.5c2.2-3.1,2.7-4.9-0.2-17.3c-1.2-4.9-2.7-10.6-4.6-16.7L221.1,451
	c-12.6,3.1-22,11-22,11l-15.3,19.1c96-1.4,250.6-7.2,261.5-11.5C461,463.6,473.1,460.5,484.2,457.9z"/>
</svg>
