<?xml version="1.0" encoding="utf-8"?>
<!-- Generator: Adobe Illustrator 17.1.0, SVG Export Plug-In . SVG Version: 6.00 Build 0)  -->
<!DOCTYPE svg PUBLIC "-//W3C//DTD SVG 1.1//EN" "http://www.w3.org/Graphics/SVG/1.1/DTD/svg11.dtd">
<svg version="1.1" id="Layer_1" xmlns="http://www.w3.org/2000/svg" xmlns:xlink="http://www.w3.org/1999/xlink" x="0px" y="0px"
	 viewBox="116.4 256.3 379.2 262.7" enable-background="new 116.4 256.3 379.2 262.7" xml:space="preserve">
<path fill="#808183" d="M446.7,501.5H165.3c-12.5,0-22.7-10.2-22.7-22.7V279c0-12.5,10.2-22.7,22.7-22.7h281.5
	c12.5,0,22.7,10.2,22.7,22.7v199.7C469.4,491.3,459.3,501.5,446.7,501.5z"/>
<path fill="#59595B" d="M446.7,256.3H304.6v245.1h142.1c12.5,0,22.7-10.2,22.7-22.7V279C469.4,266.5,459.3,256.3,446.7,256.3z"/>
<rect x="161.1" y="276.1" fill="#B1ECEF" width="289.7" height="205.5"/>
<rect x="304.6" y="276.1" fill="#85E0E0" width="146.2" height="205.5"/>
<path fill="#59595B" d="M133.5,519.1h344.9c9.4,0,17.1-7.7,17.1-17.1v-18.6c0-9.4-7.7-17.1-17.1-17.1H133.5
	c-9.4,0-17.1,7.7-17.1,17.1V502C116.4,511.4,124.1,519.1,133.5,519.1z"/>
<path fill="#272525" d="M478.5,466.2H304.6v52.9h173.8c9.4,0,17.1-7.7,17.1-17.1v-18.6C495.6,473.9,487.9,466.2,478.5,466.2z"/>
<g>
	<rect x="218.9" y="379.1" fill="#121149" width="42.4" height="62.4"/>
	<rect x="346.1" y="354.2" fill="#121149" width="42.4" height="87.3"/>
</g>
<rect x="282.5" y="366.7" fill="#386895" width="42.4" height="74.8"/>
<rect x="304.6" y="366.7" fill="#273B7A" width="20.3" height="74.8"/>
</svg>
