<?xml version="1.0" encoding="utf-8"?>
<!-- Generator: Adobe Illustrator 17.1.0, SVG Export Plug-In . SVG Version: 6.00 Build 0)  -->
<!DOCTYPE svg PUBLIC "-//W3C//DTD SVG 1.1//EN" "http://www.w3.org/Graphics/SVG/1.1/DTD/svg11.dtd">
<svg version="1.1" id="Layer_1" xmlns="http://www.w3.org/2000/svg" xmlns:xlink="http://www.w3.org/1999/xlink" x="0px" y="0px"
	 viewBox="96.7 139.6 418.6 499.9" enable-background="new 96.7 139.6 418.6 499.9" xml:space="preserve">
<polygon fill="#EBF1F2" points="239.2,546.5 242,571.5 306,587.5 369.9,571.5 372.8,546.5 "/>
<path fill="#D38957" d="M268.8,563c33.2,18.5,70.8,39.2,80.4,40.9c40.5,7.2,70.3,27.4,67,35.5c0,0-95.7-13.8-165.9-28
	C223.1,606,243,548.7,268.8,563z"/>
<path fill="#EBF1F2" d="M268.8,563c-25.8-14.4-48.8-27.5-54.3-29.6c-20.4-7.8-68-25.5-78.7,9.9c-10.7,35.4,25.5,42.3,51.6,52.3
	c12.6,4.8,35.9,10.4,63,15.8C254.2,594.4,260.5,578.2,268.8,563z"/>
<path fill="#D38957" d="M343.2,563c-33.2,18.5-70.8,39.2-80.4,40.9c-40.5,7.2-70.3,27.4-67,35.5c0,0,95.7-13.8,165.9-28
	C388.8,606,368.9,548.7,343.2,563z"/>
<g>
	<path fill="#EBF1F2" d="M343.2,563c25.8-14.4,48.8-27.5,54.3-29.6c20.4-7.8,68-25.5,78.7,9.9c10.7,35.4-25.5,42.3-51.6,52.3
		c-12.6,4.8-35.9,10.4-63,15.8C357.8,594.4,351.5,578.2,343.2,563z"/>
	<path fill="#EBF1F2" d="M369.9,384c4.6-27.8-18.1-78.3-18.1-78.3c-11-1.4-22.1-1.9-30.7-1.9h-30.3c-8.6,0.1-19.7,0.5-30.6,1.9
		c0,0-22.7,50.6-18.1,78.3c4.2,25.9,11.6,63.8-2.8,162.4H306l0,0h66.8C358.3,447.8,365.7,409.9,369.9,384z"/>
</g>
<g>
	<path fill="#D38957" d="M153.2,524.5l-56.5-34.2l7.3-4.2l47.5,17.6l40.5-56.5c8.5-22.2,7.3-120.7,29.2-132.2
		c15.7-8.3,39.1-9.3,39.1-9.3s-10.4,55-16.7,55.3c-6.3,0.2-5.2,17.4-10.6,40.3c-2.5,21.7-4.2,38.6-9,52.5L153.2,524.5z"/>
	<polygon fill="#D38957" points="160.6,505.6 141.8,503.7 148.6,487 137.8,481.2 141.3,476.7 158,480.7 	"/>
	<polygon fill="#D38957" points="121.1,500.1 131.7,501.5 135.9,487.6 145,484.3 143.9,479.3 131.1,479.6 	"/>
	<path fill="#D38957" d="M458.8,524.5l56.5-34.2l-7.3-4.2l-47.5,17.6l-40.5-56.5c-8.5-22.2-7.3-120.7-29.2-132.2
		c-15.7-8.3-39.1-9.3-39.1-9.3s10.4,55,16.7,55.3c6.3,0.2,5.2,17.4,10.6,40.3c2.5,21.7,4.2,38.6,9,52.5L458.8,524.5z"/>
	<polygon fill="#D38957" points="451.4,505.6 470.2,503.7 463.4,487 474.2,481.2 470.7,476.7 454,480.7 	"/>
	<polygon fill="#D38957" points="490.9,500.1 480.3,501.5 476.1,487.6 467,484.3 468.1,479.3 480.9,479.6 	"/>
</g>
<path fill="#C18053" d="M326.4,276.1h-40.8c6.4,19.2,0.5,28,0.5,28s1.2,12.6,20,12.6c18.7,0,19.9-12.6,19.9-12.6
	S319.9,295.2,326.4,276.1z"/>
<path fill="#D38957" d="M347.8,219.9c0-48.5-18.7-59.7-41.8-59.7c-23.1,0-41.9,11.1-41.9,59.7c0,16.4,3,29.2,7.4,39.2
	c9.6,21.8,26.4,29.5,34.5,29.5c8.1,0,24.9-7.6,34.5-29.5C344.9,249.2,347.8,236.4,347.8,219.9z"/>
<path fill="#BA634F" d="M317.7,268.7c0,0-5.3,2.7-11.8,2.7c-6.5,0-11.8-2.7-11.8-2.7c0-0.7,3.7-5.1,6.3-5.4c1.6-0.2,5.6,1.4,5.6,1.4
	s3.9-1.6,5.4-1.4C314,263.7,317.7,268.7,317.7,268.7z"/>
<path fill="#AA5B4B" d="M317.7,268.7c0,0-5.3,4.8-11.8,4.8c-6.5,0-11.8-4.8-11.8-4.8s1.2-1.5,8.1-1.9c1.1-0.1,2.7,0.9,3.7,0.9
	c0.9,0,2.2-1,3.2-0.9C316.4,267.2,317.7,268.7,317.7,268.7z"/>
<g>
	<path fill="#33160A" d="M283.9,162.6c0-8.3,9.9-15,22.1-15s22.1,6.8,22.1,15c0,8.3-9.9,15-22.1,15S283.9,171,283.9,162.6z"/>
	<path fill="#33160A" d="M349.3,222c0-48.5-13.3-61.7-43.4-61.7s-43.4,13.2-43.4,61.7c0,0,64.4-13.9,64.4-31.6
		C327,208,349.3,222,349.3,222z"/>
</g>
<g>
	<path fill="#D38957" d="M260,237c2.2,13.2,5.1,13.8,9.1,13.2l-4.3-28.7C260.9,222.1,257.8,223.8,260,237z"/>
	<path fill="#D38957" d="M347.1,221.4l-4.3,28.7c3.9,0.7,6.8,0.1,9.1-13.2C354.1,223.8,351.1,222.1,347.1,221.4z"/>
</g>
<g>
	<path fill="#33160A" d="M267.4,224.1c-0.2-1.5-0.2-2.7-0.2-3.7c0-1.5,0.2-2.5,0.2-2.5l-4.9,1.9c0,0.7,0,1.5,0,2.2
		c0,0,0.5-0.1,1.5-0.5h-0.1c0.6,1.1,1.5,3,2.3,5.6C266.2,227,268.1,228.5,267.4,224.1z"/>
	<path fill="#33160A" d="M344.7,220.4c0,1,0,2.3-0.2,3.7c-0.7,4.4,1.2,3,1.2,3c0.9-2.6,1.6-4.3,2.3-5.6c0.9,0.2,1.4,0.5,1.4,0.5
		c0-0.7,0-1.5,0-2.2l-4.9-1.9C344.5,217.9,344.6,218.9,344.7,220.4"/>
</g>
<circle fill="#714E7C" cx="306" cy="163.5" r="23.9"/>
<circle fill="#A076AB" cx="306" cy="163.5" r="16.8"/>
</svg>
