<?xml version="1.0" encoding="utf-8"?>
<!-- Generator: Adobe Illustrator 17.1.0, SVG Export Plug-In . SVG Version: 6.00 Build 0)  -->
<!DOCTYPE svg PUBLIC "-//W3C//DTD SVG 1.1//EN" "http://www.w3.org/Graphics/SVG/1.1/DTD/svg11.dtd">
<svg version="1.1" id="Layer_1" xmlns="http://www.w3.org/2000/svg" xmlns:xlink="http://www.w3.org/1999/xlink" x="0px" y="0px"
	 viewBox="150.6 249 293.1 304.4" enable-background="new 150.6 249 293.1 304.4" xml:space="preserve">
<path fill="#3A3A38" d="M443.5,477.5c0,0-30.8-228.7-31.5-228.5l-192,12c-1.1,0.1,22.2,205.2,22.2,205.2c-14.4-7.5-34.9-7.8-54.1,1
	c-29,13.2-44.4,41.7-34.4,63.6c10,22,41.6,29.1,70.5,15.9c24.5-11.2,39.5-33.3,37.2-53.2l0,0L240,304.7l161.8-10.1L424,450.4
	c-14.4-7.5-34.9-7.8-54.1,1c-29,13.2-44.4,41.7-34.4,63.6c10,22,41.6,29.1,70.5,15.9C430.8,519.6,445.6,497.4,443.5,477.5
	L443.5,477.5z"/>
</svg>
