<?xml version="1.0" encoding="utf-8"?>
<!-- Generator: Adobe Illustrator 17.1.0, SVG Export Plug-In . SVG Version: 6.00 Build 0)  -->
<!DOCTYPE svg PUBLIC "-//W3C//DTD SVG 1.1//EN" "http://www.w3.org/Graphics/SVG/1.1/DTD/svg11.dtd">
<svg version="1.1" id="Layer_1" xmlns="http://www.w3.org/2000/svg" xmlns:xlink="http://www.w3.org/1999/xlink" x="0px" y="0px"
	 viewBox="109.4 225.7 393.3 340.6" enable-background="new 109.4 225.7 393.3 340.6" xml:space="preserve">
<path fill="#3A3536" d="M396.3,364.1l50-67c0,0,67-37,55-65.4L427,288.6L374.8,347L396.3,364.1z"/>
<path fill="#514D4E" d="M346.5,335.2c0,0,53.3-48.8,68.1-61.3c14.8-12.5,49.8-38,60.2-44.3c15.9-9.6,33.4,0.6,24.4,8.5
	c-9.1,7.9-39.7,26.6-57.4,44.8c-17.6,18.1-56.7,69.2-56.7,69.2L346.5,335.2z"/>
<path fill="#C9C7C7" d="M346.5,335.2c0,0,3.7-3.5,9.5-8.6l36,16.8c-4.2,5.4-6.9,8.9-6.9,8.9L346.5,335.2z"/>
<path fill="#ADACAC" d="M399.7,363.6l-7.9-20.2c-4.2,5.4-6.9,8.9-6.9,8.9S393.9,368.7,399.7,363.6z"/>
<g>
	<path fill="#3A3536" d="M111.9,424.5c0-56.4,70.9-102.1,158.5-102.1s158.5,45.8,158.5,102.1s-70.9,102.1-158.5,102.1
		S111.9,480.9,111.9,424.5z"/>
	<path fill="#3A3536" d="M270.4,526.6c85.6,0,155.3-43.7,158.4-98.4c0-1.5,0-2.5,0-2.7c-3.7-54.3-73.1-50.9-158.2-50.9
		c-84.6,0-153.7-3.8-158.2,50c0,0.4,0,2-0.1,4.4C115.7,483.3,185.1,526.6,270.4,526.6z"/>
</g>
<ellipse fill="#666465" cx="270.4" cy="460.8" rx="146" ry="90.7"/>
<path fill="#B2162D" d="M270.4,526.6c-85.2,0-154.7-43.3-158.2-97.6c-0.1,12.5-0.1,25.8-0.1,27.3c0,56.4,70.9,110,158.5,110
	S429,512.7,429,456.3c0-1.4,0-17.6-0.1-28C425.6,482.8,356,526.6,270.4,526.6z"/>
<path fill="#E2E0E0" d="M270.4,529.1c-88.8,0-161-47-161-104.7s72.3-104.7,161-104.7c88.8,0,161,47,161,104.7
	C431.3,482.2,359.2,529.1,270.4,529.1z M270.4,325c-86,0-155.9,44.6-155.9,99.5S184.4,524,270.4,524s155.9-44.6,155.9-99.5
	S356.3,325,270.4,325z"/>
<ellipse transform="matrix(-0.479 -0.8778 0.8778 -0.479 507.0052 775.1042)" fill="#3A3536" cx="483.5" cy="237.1" rx="6" ry="9.6"/>
</svg>
