<?xml version="1.0" encoding="utf-8"?>
<!-- Generator: Adobe Illustrator 17.1.0, SVG Export Plug-In . SVG Version: 6.00 Build 0)  -->
<!DOCTYPE svg PUBLIC "-//W3C//DTD SVG 1.1//EN" "http://www.w3.org/Graphics/SVG/1.1/DTD/svg11.dtd">
<svg version="1.1" id="Layer_1" xmlns="http://www.w3.org/2000/svg" xmlns:xlink="http://www.w3.org/1999/xlink" x="0px" y="0px"
	 viewBox="100.5 150 411.1 492" enable-background="new 100.5 150 411.1 492" xml:space="preserve">
<g>
	<path fill="#273B7A" d="M333.9,197.4l-42-42c-7.2-7.2-19-7.2-26.2,0c-7.2,7.2-7.2,19,0,26.2l10.9,10.9
		C177.1,206.9,100.5,292.6,100.5,396c0,62.4,27.9,120.8,76.5,160c3.4,2.8,7.5,4.1,11.6,4.1c5.4,0,10.8-2.4,14.4-6.9
		c6.4-8,5.2-19.6-2.8-26.1c-39.9-32.2-62.7-80-62.7-131.2c0-82.2,59.1-150.7,137.1-165.5l-8.9,8.9c-7.2,7.2-7.2,19,0,26.2
		c3.6,3.6,8.4,5.4,13.1,5.4c4.7,0,9.5-1.8,13.1-5.4l42-42C341.2,216.4,341.2,204.7,333.9,197.4z"/>
	<path fill="#273B7A" d="M511.5,396c0-63.7-28.8-122.8-79.1-162.1c-8.1-6.3-19.7-4.9-26,3.2c-6.3,8.1-4.9,19.7,3.2,26
		c41.2,32.2,64.8,80.6,64.8,132.8c0,89.7-70.5,163.2-158.9,168.2l11.6-11.6c7.2-7.2,7.2-19,0-26.2c-7.2-7.2-19-7.2-26.2,0l-42,42
		c-7.2,7.2-7.2,19,0,26.2l42,42c3.6,3.6,8.4,5.4,13.1,5.4s9.5-1.8,13.1-5.4c7.2-7.2,7.2-19,0-26.2l-9.1-9.1
		C425.8,595,511.5,505.3,511.5,396z"/>
</g>
<polygon fill="#FFC61B" points="262.5,482.6 240.1,460.1 294.9,405.3 294.9,292.9 326.6,292.9 326.6,418.5 "/>
<g>
	<path fill="#121149" d="M200.3,527.2c-39.9-32.2-62.7-80-62.7-131.2c0-24.6,5.3-48,14.9-69.1l-32.9-17.3
		c-12.2,26.3-19.1,55.5-19.1,86.3c0,62.4,27.9,120.8,76.5,160c3.4,2.8,7.5,4.1,11.6,4.1c5.4,0,10.8-2.4,14.4-6.9
		C209.5,545.3,208.3,533.6,200.3,527.2z"/>
	<path fill="#121149" d="M315.5,564.2l11.6-11.6c7.2-7.2,7.2-19,0-26.2c-7.2-7.2-19-7.2-26.2,0l-42,42c-7.2,7.2-7.2,19,0,26.2l42,42
		c3.6,3.6,8.4,5.4,13.1,5.4s9.5-1.8,13.1-5.4c7.2-7.2,7.2-19,0-26.2l-9.1-9.1c70.2-4,131-43.5,165-100.7L450,483.2
		C422,529.3,372.5,561,315.5,564.2z"/>
</g>
<polygon fill="#E09112" points="294.9,401.7 294.9,405.3 240.1,460.1 262.5,482.6 326.6,418.5 326.6,418.4 "/>
</svg>
