<?xml version="1.0" encoding="utf-8"?>
<!-- Generator: Adobe Illustrator 17.1.0, SVG Export Plug-In . SVG Version: 6.00 Build 0)  -->
<!DOCTYPE svg PUBLIC "-//W3C//DTD SVG 1.1//EN" "http://www.w3.org/Graphics/SVG/1.1/DTD/svg11.dtd">
<svg version="1.1" id="Capa_1" xmlns="http://www.w3.org/2000/svg" xmlns:xlink="http://www.w3.org/1999/xlink" x="0px" y="0px"
	 viewBox="0 238.1 612 315.9" enable-background="new 0 238.1 612 315.9" xml:space="preserve">
<g>
	<g>
		<g>
			<path fill="#B23322" d="M117.2,341.8c0.2,0,0.4,0,0.6,0.1c98.2,11.7,142.6-49.8,148.2-58.2c-8.1-6.8-19.6-12.5-30.8-4.4
				c-20.2,14.8-24.2,45-103.7,39.3c-79.4-5.7-74-58.2-74-58.2s1.3-22.4-18.8-22.4c0,0-8.7,24.8-17.8,59.5
				C58.8,338.4,116.6,341.8,117.2,341.8z"/>
		</g>
		<g>
			<path fill="#F86E51" d="M567.8,439.5c-56.1-18.9-88.7-11.1-288.9-142.8c-11.2,15.4-53.7,64.7-136.7,64.7
				c-8.3,0-17.1-0.5-26.2-1.6c-5.3-0.3-59-4.4-100.2-42C1.2,378.7-10.5,457.9,14.9,493l591.9,27.3
				C606.8,520.3,633,461.5,567.8,439.5z"/>
		</g>
		<g opacity="0.47">
			<g>
				<path fill="#D34B35" d="M58.4,359.8c9.2,1.1,17.9,1.6,26.2,1.6c9.7,0,18.8-0.7,27.4-1.9c-14.2-1.5-60.1-8.6-96.3-41.6
					c-2.3,9.8-4.6,20.2-6.7,30.7C34.3,358.1,55.2,359.6,58.4,359.8z"/>
			</g>
			<g>
				<path fill="#D34B35" d="M567.8,439.5c-56.1-18.9-88.7-11.1-288.9-142.8c-3.7,5.1-10.8,13.8-21.6,23.3
					c168.5,107.5,200.4,101.8,252.9,119.5c57,19.2,44.2,66.6,40,78.2l56.6,2.6C606.8,520.3,633,461.5,567.8,439.5z"/>
			</g>
		</g>
		<g>
			<path fill="#32373B" d="M142.2,361.4c83,0,125.5-49.3,136.7-64.7c-0.6-0.4-1.3-0.8-1.9-1.2c0,0-4.4-6.2-11-11.8
				c-5.6,8.4-50,69.9-148.2,58.2c-0.2,0-0.4,0-0.6-0.1c-0.6,0-58.4-3.5-96.3-44.3c-1.7,6.5-3.4,13.2-5.1,20.3
				c41.2,37.6,94.9,41.7,100.2,42C125.1,360.9,133.9,361.4,142.2,361.4z"/>
		</g>
	</g>
	<g>
		<path fill="#C63C22" d="M14.9,493l591.9,27.3c-6.1,27.3-23.2,33.7-23.2,33.7H37.8C37.8,553.9,14.9,553.9,14.9,493z"/>
	</g>
	<g>
		<g>
			<path fill="#32373B" d="M285,364.4c6.5,5.3,15.8-5.1,15.8-5.1l29.5-29.5c-4.9-3.1-9.9-6.2-15-9.5L285,350.6
				C285,350.6,277.4,358.2,285,364.4z"/>
		</g>
		<g>
			<path fill="#32373B" d="M336.1,390.4c6.5,5.3,15.8-5.1,15.8-5.1l26.3-26.3c-5-2.9-10.1-6-15.4-9.2l-26.8,26.8
				C336.1,376.6,328.5,384.2,336.1,390.4z"/>
		</g>
		<g>
			<path fill="#32373B" d="M396.6,416.5c6.5,5.3,15.8-5.1,15.8-5.1l21.5-21.5c-5.1-2.6-10.4-5.4-16-8.5l-21.3,21.3
				C396.6,402.7,389,410.3,396.6,416.5z"/>
		</g>
		<g>
			<path fill="#32373B" d="M452.5,440.8c6.5,5.3,15.8-5.1,15.8-5.1l20.7-20.7c-5.4-2.1-11.2-4.5-17.4-7.1l-19.1,19.1
				C452.5,427.1,444.9,434.7,452.5,440.8z"/>
		</g>
	</g>
	<g>
		<circle fill="#D0D5D9" cx="134.7" cy="425.1" r="48.3"/>
	</g>
	<g>
		<circle fill="#9E2515" cx="134.7" cy="425.1" r="27.3"/>
	</g>
</g>
</svg>
