<?xml version="1.0" encoding="utf-8"?>
<!-- Generator: Adobe Illustrator 17.1.0, SVG Export Plug-In . SVG Version: 6.00 Build 0)  -->
<!DOCTYPE svg PUBLIC "-//W3C//DTD SVG 1.1//EN" "http://www.w3.org/Graphics/SVG/1.1/DTD/svg11.dtd">
<svg version="1.1" id="Layer_1" xmlns="http://www.w3.org/2000/svg" xmlns:xlink="http://www.w3.org/1999/xlink" x="0px" y="0px"
	 viewBox="113.1 232.5 396 303.4" enable-background="new 113.1 232.5 396 303.4" xml:space="preserve">
<g>
	<rect x="113.1" y="361" fill="#3F3F3E" width="396" height="103.6"/>
	<path fill="#82725A" d="M113.1,366.8c0,0,112.7,44.3,197.1,44.3c92.2,0,198.8-44.7,198.8-44.7v-54.5c0-27.7-27.2-26.4-27.2-26.4
		H139c-26.8,0-25.9,26.4-25.9,26.4L113.1,366.8L113.1,366.8L113.1,366.8z M337.2,398.1l-53.3-0.4c0,0,0.4-5.9,0.4-13.2
		c0-7.3,5.9-13.2,13.2-13.2H324c7.3,0,13.2,5.9,13.2,13.2C337.2,391.8,337.2,398.1,337.2,398.1z M509,509.5V381.6
		c0,0-85.8,42.8-199.3,42.8c-104.5,0-196.6-44.1-196.6-44.1v129.1c0,26.8,25.5,26.4,25.5,26.4h343.6
		C510.7,535.9,509,509.5,509,509.5z M336.8,451c0,7.3-5.9,12.8-13.2,12.8h-26.4c-7.3,0-13.2-5.5-13.2-12.8c0-7.3,0-13.6,0-13.6
		l53.3-0.4C337.2,437,336.8,443.7,336.8,451z"/>
	<path fill="#5B4F3F" d="M113.1,366.8c0,0,112.7,44.3,197.1,44.3c92.2,0,198.8-44.7,198.8-44.7v-54.5c0-27.7-27.2-26.4-27.2-26.4
		H139c-26.8,0-25.9,26.4-25.9,26.4L113.1,366.8L113.1,366.8L113.1,366.8z M337.2,398.1l-53.3-0.4c0,0,0.4-5.9,0.4-13.2
		c0-7.3,5.9-13.2,13.2-13.2H324c7.3,0,13.2,5.9,13.2,13.2C337.2,391.8,337.2,398.1,337.2,398.1z"/>
	<path fill="#3F3F3E" d="M376.5,285.4v-26.8c0-27.3-25.6-26-25.6-26h-80.1c-25.2,0-26,26.4-26,26.4v26.4L376.5,285.4L376.5,285.4
		L376.5,285.4z M270.8,271.4c0-12,13.2-12.8,13.2-12.8h53.3c14,0,13.2,14.4,13.2,14.4l-0.4,12.4h-79.3V271.4z"/>
</g>
</svg>
