<?xml version="1.0" encoding="utf-8"?>
<!-- Generator: Adobe Illustrator 17.1.0, SVG Export Plug-In . SVG Version: 6.00 Build 0)  -->
<!DOCTYPE svg PUBLIC "-//W3C//DTD SVG 1.1//EN" "http://www.w3.org/Graphics/SVG/1.1/DTD/svg11.dtd">
<svg version="1.1" id="Layer_1" xmlns="http://www.w3.org/2000/svg" xmlns:xlink="http://www.w3.org/1999/xlink" x="0px" y="0px"
	 viewBox="99.7 199.2 396 402.7" enable-background="new 99.7 199.2 396 402.7" xml:space="preserve">
<path fill="#3A3A38" d="M246.1,252.6c-4.9,14.8,74.2,258.1,177.1,234.8c102.9-23.3,69.6-276.9,58.7-288.2
	c-24.5,23.6-69.2,45-111.6,54.6C328,263.4,278.4,263.2,246.1,252.6z"/>
<g>
	<path fill="#FFFFFF" d="M462.8,416.7c2-7.8-21.1-42.7-63-33.2c-41.9,9.5-47.7,51.1-42.7,57.1c0,0,12.2-15.5,50.1-24.2
		C445.1,407.8,462.8,416.7,462.8,416.7z"/>
	<path fill="#FFFFFF" d="M357.9,310.7c3.5,8.5-9,8.8-22.3,14.2c-13.3,5.3-22.3,14.2-25.9,5.2c-3.6-8.9,5.8-17,19.1-22.3
		C342,302.4,354.5,302.1,357.9,310.7z"/>
	<path fill="#FFFFFF" d="M401.8,300.7c0.6,9.1,12,4.1,26.3,3.1c14.3-0.9,26.3,3.1,25.7-6.4c-0.6-9.6-12.5-12.8-26.9-12
		C412.6,286.4,401.2,291.5,401.8,300.7z"/>
</g>
<path fill="#3A3A38" d="M105.2,320c-9.7,12.2-18.6,268,86,281.3C295.8,614.7,351.4,364.9,345,350.6c-31.1,13.7-80.4,18.6-123.6,13.1
	C178.3,358.1,131.8,341,105.2,320z"/>
<g>
	<path fill="#FFFFFF" d="M148.9,495.9c-4.6,6.8,3.6,61.9,47.1,67.5s65.2-45.8,62.5-53.4c0,0-18.7,24.2-58.2,19.1
		C161,524,148.9,495.9,148.9,495.9z"/>
	<path fill="#FFFFFF" d="M190.3,412.9c0.2,9.3-11.5,5.2-25.9,5.7c-14.3,0.5-25.9,5.7-26.1-3.9c-0.2-9.6,11.2-13.9,25.5-14.4
		C178.2,399.7,189.9,403.6,190.3,412.9z"/>
	<path fill="#FFFFFF" d="M235,418.6c-2.6,8.9,9.9,7.9,23.6,12c13.8,4.1,23.6,12,26.3,2.7s-7.4-16.3-21.1-20.4
		C250,408.8,237.5,409.7,235,418.6z"/>
</g>
</svg>
