<?xml version="1.0" encoding="utf-8"?>
<!-- Generator: Adobe Illustrator 17.1.0, SVG Export Plug-In . SVG Version: 6.00 Build 0)  -->
<!DOCTYPE svg PUBLIC "-//W3C//DTD SVG 1.1//EN" "http://www.w3.org/Graphics/SVG/1.1/DTD/svg11.dtd">
<svg version="1.1" id="Layer_1" xmlns="http://www.w3.org/2000/svg" xmlns:xlink="http://www.w3.org/1999/xlink" x="0px" y="0px"
	 viewBox="95.8 299 420.4 194" enable-background="new 95.8 299 420.4 194" xml:space="preserve">
<rect x="176.7" y="363.7" fill="#F9F9F9" width="258.7" height="64.7"/>
<rect x="176.7" y="396" fill="#D0D1D3" width="258.7" height="32.3"/>
<path fill="#FFC91B" d="M176.7,493h-32.3c-8.9,0-16.2-7.2-16.2-16.2V315.2c0-8.9,7.2-16.2,16.2-16.2h32.3c8.9,0,16.2,7.2,16.2,16.2
	v161.7C192.8,485.8,185.6,493,176.7,493z"/>
<path fill="#EAA22F" d="M128.2,396v80.8c0,8.9,7.2,16.2,16.2,16.2h32.3c8.9,0,16.2-7.2,16.2-16.2V396H128.2z"/>
<path fill="#FF7F4F" d="M118.1,460.7h-12.3c-5.5,0-10-4.5-10-10V341.4c0-5.5,4.5-10,10-10h12.3c5.5,0,10,4.5,10,10v109.3
	C128.2,456.2,123.7,460.7,118.1,460.7z"/>
<path fill="#D35933" d="M95.8,396v54.6c0,5.5,4.5,10,10,10h12.3c5.5,0,10-4.5,10-10V396H95.8z"/>
<path fill="#FFC91B" d="M435.3,299h32.3c8.9,0,16.2,7.2,16.2,16.2v161.7c0,8.9-7.2,16.2-16.2,16.2h-32.3c-8.9,0-16.2-7.2-16.2-16.2
	V315.2C419.2,306.2,426.4,299,435.3,299z"/>
<path fill="#EAA22F" d="M419.2,396v80.8c0,8.9,7.2,16.2,16.2,16.2h32.3c8.9,0,16.2-7.2,16.2-16.2V396H419.2z"/>
<path fill="#FF7F4F" d="M493.9,331.3h12.3c5.5,0,10,4.5,10,10v109.3c0,5.5-4.5,10-10,10h-12.3c-5.5,0-10-4.5-10-10V341.4
	C483.8,335.8,488.3,331.3,493.9,331.3z"/>
<path fill="#D35933" d="M483.8,396v54.6c0,5.5,4.5,10,10,10h12.3c5.5,0,10-4.5,10-10V396H483.8z"/>
</svg>
