<?xml version="1.0" encoding="utf-8"?>
<!-- Generator: Adobe Illustrator 17.1.0, SVG Export Plug-In . SVG Version: 6.00 Build 0)  -->
<!DOCTYPE svg PUBLIC "-//W3C//DTD SVG 1.1//EN" "http://www.w3.org/Graphics/SVG/1.1/DTD/svg11.dtd">
<svg version="1.1" id="Layer_1" xmlns="http://www.w3.org/2000/svg" xmlns:xlink="http://www.w3.org/1999/xlink" x="0px" y="0px"
	 viewBox="187 284 238 224" enable-background="new 187 284 238 224" xml:space="preserve">
<path fill="#333333" d="M370.8,506.8c16.4,1.1,43-1.4,48-3.1c4.6-1.6,10.5-8.9,2-19.7c-5.8-7.4-10.6-12.2-32.6-21.2
	c-21.2-8.6-73.5-6-93.2-3.2c-5.1,0.5-9.6,1.5-13.3,2.5c-7.3,2,17.3,34.3,27.3,35.9c21.7-1.4,52.9-15.5,62.9-16.9
	C371.5,481.1,369.6,506.6,370.8,506.8z"/>
<path fill="#282828" d="M364.6,481.8c0,0,13.1-5.4,29.5-2C394.2,479.7,372,480.9,364.6,481.8z"/>
<path fill="#3D3C3C" d="M335.2,482.6c0,0-16-37.7-26.8-37.4c-1.2,0-3.8-0.5-4.6-0.6c-19.7-3.3-26.9,10.1-30.8,10.7
	c-4.2,0.7,7.6,43.7,16,43.4c16.5-0.5,20.5-1.7,31.3-5.8C326.6,490.6,335.2,482.6,335.2,482.6z"/>
<g>
	<path fill="#E2A379" d="M274.9,504.4c0-5.1,19.7-6.9,22.8-9.3c1.5-1.2,3.2-3.7,7.3-4.9c6.7-1.2,10.5,4.7,12.3,3.9
		c7.3,0,34-11.8,54.1-13.1c1.5-0.1,0.9,25.8-0.7,25.7c-19.1-2.3-50.2,0-56.2,0.4c0,0-19.1-0.4-23.8,0.2
		C288,507.7,274.9,509.5,274.9,504.4z"/>
	<path fill="#E2A379" d="M234.8,322c4.6,2.3-2.5,22.7-1.9,26.5c0.4,1.9,2.6,4.2,1.6,8.5c-1.1,5.6-5.8,7.6-6.5,9.5
		c-3.9,10.1-3.9,46.7-4.4,52.8c-1,12.2-28.4-0.6-27-4.9c5.6-16.9,18.6-50.6,21.3-56.5c0,0,5.1-19,6.8-23.3
		C225.8,332,230.4,319.7,234.8,322z"/>
</g>
<path fill="#3D3C3C" d="M214.9,462.1c3.7-16.9,7.3-25.8,8.9-42.9c-10.6,1.2-21.6-2.3-27.1-4.3c-4.9,21.3-16.3,75.1-4.2,80.8
	c12.7,5.9,97.9,3.3,101.6,2.6c14.1-2.6,29.4-23.1,24.2-31.7c0,0-13.8-11.2-30.1-11.6C259.3,454.2,214.9,462.1,214.9,462.1z"/>
<path fill="#B3233B" d="M347.3,366.8c-4.9-14.3-13.6-16-28.9-25.7c-2-1.2-12.8-1.1-17,1.2c-4.7,2.7-8.5,6.4-10.4,12.2
	c-3.7,11.3,20.5,36.5,23.1,53.5c3.1,11.3,0.5,36.3-5.7,37.1l26.8,37.4c35.3-58.8,17.6-90.8,12-105
	C347.2,377.6,349,371.7,347.3,366.8z"/>
<path fill="#E2A379" d="M303.3,339.6c0,0-4.1-3.3-10.5-9.7l-17.4,10.9c9.9,3.2,16.7,11.7,16.7,11.7c7-11.6,15.2-9.7,18.9-12.1
	L303.3,339.6z"/>
<path fill="#F4B382" d="M258.1,321.6c-7.8-1.2-12,4.4-14.2,8c-6.7,11.2-4.2,18.3,0.4,26.6c5.9,11,37.2-0.5,41.6-4.2
	c11.3-9.4,6.8-29.6,3.1-37c-4.1-8-5.7-4.6-8.8-2.6c-0.1,0.1-0.7-0.1-0.7-0.1c-1.1,0.6-2.6,1.5-4.4,1.5c0,0-0.9,0.9-1.4,1.1
	c-0.4,0.2-0.6,0.2-1,0c-1-1-2-1.9-2.7-2C267.9,312.4,261.7,322.1,258.1,321.6z"/>
<path fill="#D6876B" d="M279.1,317.9c0,0,0-1-1.9-4.6c-0.5-0.4-1.4-0.9-2,0.4C274.8,314.6,277.4,315.6,279.1,317.9z"/>
<path fill="#CC785E" d="M279.1,317.9c0,0,1.5-1.7,0.5-5.4c-0.4-0.5-0.9-0.6-1.1-0.6c-1.4,0.1-1.2,1.5-1.2,1.5
	C279.1,316.9,279.1,317.9,279.1,317.9z"/>
<path fill="#602F0F" d="M242.9,358c7.3,13.4,36.4,20.8,49.2-9.9c0.9-2.1,1.1-5.8-4.2-8.3c-3.8-1.7-7.9-2.2-7.9-2.2
	c-1.2-0.1-2.5-0.2-3.9-0.4s-7.6,4.3-8.6,3.1c-9.3-12.1-19.2-13.9-22.8-12C237.2,334.6,235.1,343.7,242.9,358z"/>
<path fill="#F4B382" d="M277.4,342c4.9-5.2,3.8-7.9,1.6-11.2l-8.1,7l-2.7,3.8C270.4,344.9,272.6,347.3,277.4,342z"/>
<path fill="#4C230C" d="M274.8,368c-1,4.6-8.3,6.7-16.3,4.6c-8-2.1-13.7-7.4-12.7-12c1-4.6,6.9-5.4,14.9-3.3
	C268.6,359.2,275.8,363.3,274.8,368z"/>
<g>
	<path fill="#602F0F" d="M268.1,338.3c-1,0.7-2,1.4-2.7,1.7c-1.1,0.6-2,0.9-2,0.9l3.5,3.1c0.6-0.2,1.1-0.6,1.7-1c0,0-0.4-0.4-1-1
		c0,0,0,0,0.1,0.1c0.6-1,1.6-2.5,3.2-4.2C271,338,271.2,335.9,268.1,338.3z"/>
	<path fill="#602F0F" d="M275.5,370.3c-1,4.8-9,6.9-17.8,4.7c-8.8-2.2-15-8-13.9-12.8c1-4.8,7.5-5.7,16.3-3.5
		C268.9,361.1,276.6,365.5,275.5,370.3z"/>
</g>
<path fill="#4C230C" d="M262.5,374.7c-0.1,0.5-2.3,0.4-5.1-0.2c-2.7-0.7-4.7-1.7-4.7-2.2c0.1-0.5,2-0.4,4.7,0.4
	C260.1,373.2,262.6,374,262.5,374.7z"/>
<g>
	<path fill="#F4B382" d="M238.3,309.4c0,0,37-18.5,44.2-23.2c3.7-2.3,7.2-2.6,8.4-2c1.4,0.6,3.6,3.3,6,7.8
		c5.7,10.7,19.7,57.1,18,69.7c-1.2,8.5-12.8,9.4-19.4,4.9c-4.3-3-5.4-10.4-5.4-15.5c0-3.2-0.4-7-2.2-19.5
		c-1.4-7.5-2.6-18.7-4.1-27.1c0,0-17.6,1.4-38.2,12.7L238.3,309.4z"/>
	<path fill="#F4B382" d="M245.4,317.2c1.7-1.5-7.2-7.6-7.2-7.6s-1.9,1.7-5.8,3.5c-5.4,2.5-11.3,8.8-13.1,13.4
		c-1.6,4.1-0.6,9.6,2.6,13c3.2,3.3,15.7-12,20.7-15L245.4,317.2z"/>
	<path fill="#F4B382" d="M236.9,326.9c0,0-4.8,3.9-3,6.7c1.5,2.3,2.2,3,8.6-9.4C242.6,324.2,241.2,323.1,236.9,326.9z"/>
</g>
</svg>
