<?xml version="1.0" encoding="utf-8"?>
<!-- Generator: Adobe Illustrator 17.1.0, SVG Export Plug-In . SVG Version: 6.00 Build 0)  -->
<!DOCTYPE svg PUBLIC "-//W3C//DTD SVG 1.1//EN" "http://www.w3.org/Graphics/SVG/1.1/DTD/svg11.dtd">
<svg version="1.1" id="Capa_1" xmlns="http://www.w3.org/2000/svg" xmlns:xlink="http://www.w3.org/1999/xlink" x="0px" y="0px"
	 viewBox="0 54.9 512 402.3" enable-background="new 0 54.9 512 402.3" xml:space="preserve">
<g>
	<path fill="#A9A9A9" d="M491.7,211.4c-13.5-31.6-31.7-58.9-54.6-81.7c-22.9-22.9-50.1-41-81.7-54.6c-31.6-13.5-64.8-20.3-99.4-20.3
		c-34.7,0-67.8,6.8-99.4,20.3c-31.6,13.5-58.9,31.7-81.7,54.6c-22.9,22.9-41,50.1-54.6,81.7C6.8,243.1,0,276.2,0,310.9
		c0,49.9,13.4,95.9,40.3,138c3.6,5.5,8.8,8.3,15.4,8.3h400.6c6.7,0,11.8-2.8,15.4-8.3c26.9-42.3,40.3-88.3,40.3-138
		C512,276.2,505.2,243.1,491.7,211.4z M230.1,102.1c7.1-7.1,15.8-10.7,25.9-10.7c10.1,0,18.7,3.6,25.9,10.7
		c7.1,7.1,10.7,15.8,10.7,25.9c0,10.1-3.6,18.7-10.7,25.9c-7.1,7.1-15.8,10.7-25.9,10.7c-10.1,0-18.7-3.6-25.9-10.7
		c-7.1-7.1-10.7-15.8-10.7-25.9S223,109.3,230.1,102.1z M99,336.7c-7.1,7.1-15.8,10.7-25.9,10.7c-10.1,0-18.7-3.6-25.9-10.7
		c-7.1-7.1-10.7-15.8-10.7-25.9c0-10.1,3.6-18.7,10.7-25.9c7.1-7.1,15.8-10.7,25.9-10.7c10.1,0,18.7,3.6,25.9,10.7
		c7.1,7.1,10.7,15.8,10.7,25.9C109.7,321,106.1,329.6,99,336.7z M153.9,208.7c-7.1,7.1-15.8,10.7-25.9,10.7s-18.7-3.6-25.9-10.7
		c-7.1-7.1-10.7-15.8-10.7-25.9c0-10.1,3.6-18.7,10.7-25.9c7.1-7.1,15.8-10.7,25.9-10.7c10.1,0,18.7,3.6,25.9,10.7
		c7.1,7.1,10.7,15.8,10.7,25.9C164.6,193,161,201.6,153.9,208.7z M315.7,211.1l-28.9,109.1c9.5,6.5,16.4,15.1,20.6,26
		c4.2,10.9,4.8,22,1.7,33.4c-3.8,14.7-12.3,25.8-25.4,33.4c-13.1,7.6-27,9.5-41.7,5.7c-14.7-3.8-25.8-12.3-33.4-25.4
		c-7.6-13.1-9.5-27-5.7-41.7c3-11.4,9-20.8,18-28.1c9-7.3,19.1-11.5,30.6-12.4L280.3,202c1.3-5,4.2-8.7,8.6-11.3
		c4.4-2.6,9-3.2,13.7-1.9c4.8,1.3,8.4,4.1,11,8.4C316.1,201.6,316.9,206.2,315.7,211.1z M358.1,208.7c-7.1-7.1-10.7-15.8-10.7-25.9
		c0-10.1,3.6-18.7,10.7-25.9c7.1-7.1,15.8-10.7,25.9-10.7c10.1,0,18.7,3.6,25.9,10.7s10.7,15.8,10.7,25.9c0,10.1-3.6,18.7-10.7,25.9
		c-7.1,7.1-15.8,10.7-25.9,10.7C373.9,219.4,365.3,215.9,358.1,208.7z M464.7,336.7c-7.1,7.1-15.8,10.7-25.9,10.7
		c-10.1,0-18.7-3.6-25.9-10.7c-7.1-7.1-10.7-15.8-10.7-25.9c0-10.1,3.6-18.7,10.7-25.9c7.1-7.1,15.8-10.7,25.9-10.7
		c10.1,0,18.7,3.6,25.9,10.7c7.1,7.1,10.7,15.8,10.7,25.9C475.4,321,471.9,329.6,464.7,336.7z"/>
</g>
</svg>
