<svg xmlns="http://www.w3.org/2000/svg" viewBox="0 54.9 512 402.3"><path fill="#A9A9A9" d="M491.7 211.4c-13.5-31.6-31.7-58.9-54.6-81.7-22.9-22.9-50.1-41-81.7-54.6-31.6-13.5-64.8-20.3-99.4-20.3-34.7 0-67.8 6.8-99.4 20.3-31.6 13.5-58.9 31.7-81.7 54.6-22.9 22.9-41 50.1-54.6 81.7C6.8 243.1 0 276.2 0 310.9c0 49.9 13.4 95.9 40.3 138 3.6 5.5 8.8 8.3 15.4 8.3h400.6c6.7 0 11.8-2.8 15.4-8.3 26.9-42.3 40.3-88.3 40.3-138 0-34.7-6.8-67.8-20.3-99.5zM230.1 102.1c7.1-7.1 15.8-10.7 25.9-10.7 10.1 0 18.7 3.6 25.9 10.7 7.1 7.1 10.7 15.8 10.7 25.9 0 10.1-3.6 18.7-10.7 25.9-7.1 7.1-15.8 10.7-25.9 10.7-10.1 0-18.7-3.6-25.9-10.7-7.1-7.1-10.7-15.8-10.7-25.9s3.6-18.7 10.7-25.9zM99 336.7c-7.1 7.1-15.8 10.7-25.9 10.7-10.1 0-18.7-3.6-25.9-10.7-7.1-7.1-10.7-15.8-10.7-25.9 0-10.1 3.6-18.7 10.7-25.9 7.1-7.1 15.8-10.7 25.9-10.7 10.1 0 18.7 3.6 25.9 10.7 7.1 7.1 10.7 15.8 10.7 25.9 0 10.2-3.6 18.8-10.7 25.9zm54.9-128c-7.1 7.1-15.8 10.7-25.9 10.7s-18.7-3.6-25.9-10.7c-7.1-7.1-10.7-15.8-10.7-25.9 0-10.1 3.6-18.7 10.7-25.9 7.1-7.1 15.8-10.7 25.9-10.7 10.1 0 18.7 3.6 25.9 10.7 7.1 7.1 10.7 15.8 10.7 25.9 0 10.2-3.6 18.8-10.7 25.9zm161.8 2.4l-28.9 109.1c9.5 6.5 16.4 15.1 20.6 26 4.2 10.9 4.8 22 1.7 33.4-3.8 14.7-12.3 25.8-25.4 33.4-13.1 7.6-27 9.5-41.7 5.7-14.7-3.8-25.8-12.3-33.4-25.4-7.6-13.1-9.5-27-5.7-41.7 3-11.4 9-20.8 18-28.1 9-7.3 19.1-11.5 30.6-12.4L280.3 202c1.3-5 4.2-8.7 8.6-11.3 4.4-2.6 9-3.2 13.7-1.9 4.8 1.3 8.4 4.1 11 8.4 2.5 4.4 3.3 9 2.1 13.9zm42.4-2.4c-7.1-7.1-10.7-15.8-10.7-25.9 0-10.1 3.6-18.7 10.7-25.9 7.1-7.1 15.8-10.7 25.9-10.7 10.1 0 18.7 3.6 25.9 10.7s10.7 15.8 10.7 25.9c0 10.1-3.6 18.7-10.7 25.9-7.1 7.1-15.8 10.7-25.9 10.7-10.1 0-18.7-3.5-25.9-10.7zm106.6 128c-7.1 7.1-15.8 10.7-25.9 10.7-10.1 0-18.7-3.6-25.9-10.7-7.1-7.1-10.7-15.8-10.7-25.9 0-10.1 3.6-18.7 10.7-25.9 7.1-7.1 15.8-10.7 25.9-10.7 10.1 0 18.7 3.6 25.9 10.7 7.1 7.1 10.7 15.8 10.7 25.9 0 10.2-3.5 18.8-10.7 25.9z"/></svg>