<?xml version="1.0" encoding="utf-8"?>
<!-- Generator: Adobe Illustrator 17.1.0, SVG Export Plug-In . SVG Version: 6.00 Build 0)  -->
<!DOCTYPE svg PUBLIC "-//W3C//DTD SVG 1.1//EN" "http://www.w3.org/Graphics/SVG/1.1/DTD/svg11.dtd">
<svg version="1.1" id="Layer_1" xmlns="http://www.w3.org/2000/svg" xmlns:xlink="http://www.w3.org/1999/xlink" x="0px" y="0px"
	 viewBox="136.5 172.9 339 428.4" enable-background="new 136.5 172.9 339 428.4" xml:space="preserve">
<circle fill="#FFD05B" cx="300.9" cy="453.3" r="148"/>
<path fill="#FF7058" d="M409.1,284.7c1,18.8-8.2,37.6-21.2,57.3c10.6-64.1-10.6-135.9-95.9-169.1c7.2,27-10.1,60.2-27,96.4
	c-10.1-11.6-21.7-22.6-35.7-33.3c6.7,89.6-189.9,179.3-30.4,332.5c0,0,10.6,6.7,29.4,13.5c-0.5-0.5-1-1-1.4-1.4l0,0
	c-34.2-37.1-53-113.7,12-164.3c-1,12.5,5.3,24.6,14,37.1c-6.7-41.4,6.7-88.2,62.2-109.9c-4.8,17.3,6.7,39,17.3,62.6
	c6.3-7.7,14-14.9,23.1-21.7c-3.4,47.7,85.3,96.9,53.5,169.6c6.3-4.8,12.5-10.1,18.3-16.4l0,0C480,480.8,508.9,362.7,409.1,284.7z"/>
</svg>
