<svg xmlns="http://www.w3.org/2000/svg" viewBox="0 0 512 512"><path fill="#CCC" d="M455.3 242.9c-6.8-6.8-15-10.2-24.7-10.2H419v-69.8c0-44.6-16-82.9-48-114.9-32.1-32-70.4-48-115-48-44.6 0-82.9 16-114.9 48s-48 70.3-48 114.9v69.8H81.5c-9.7 0-17.9 3.4-24.7 10.2-6.8 6.8-10.2 15-10.2 24.7v209.5c0 9.7 3.4 17.9 10.2 24.7 6.8 6.8 15 10.2 24.7 10.2h349.1c9.7 0 17.9-3.4 24.7-10.2 6.8-6.8 10.2-15 10.2-24.7V267.6c0-9.7-3.4-17.9-10.2-24.7zm-106.2-10.2H162.9v-69.8c0-25.7 9.1-47.6 27.3-65.8 18.2-18.2 40.1-27.3 65.8-27.3 25.7 0 47.6 9.1 65.8 27.3 18.2 18.2 27.3 40.1 27.3 65.8v69.8z"/></svg>