<?xml version="1.0" encoding="utf-8"?>
<!-- Generator: Adobe Illustrator 17.1.0, SVG Export Plug-In . SVG Version: 6.00 Build 0)  -->
<!DOCTYPE svg PUBLIC "-//W3C//DTD SVG 1.1//EN" "http://www.w3.org/Graphics/SVG/1.1/DTD/svg11.dtd">
<svg version="1.1" id="Capa_1" xmlns="http://www.w3.org/2000/svg" xmlns:xlink="http://www.w3.org/1999/xlink" x="0px" y="0px"
	 viewBox="0 0 512 512" enable-background="new 0 0 512 512" xml:space="preserve">
<g>
	<path fill="#CCCCCC" d="M455.3,242.9c-6.8-6.8-15-10.2-24.7-10.2h-11.6v-69.8c0-44.6-16-82.9-48-114.9C338.9,16,300.6,0,256,0
		c-44.6,0-82.9,16-114.9,48c-32,32-48,70.3-48,114.9v69.8H81.5c-9.7,0-17.9,3.4-24.7,10.2c-6.8,6.8-10.2,15-10.2,24.7v209.5
		c0,9.7,3.4,17.9,10.2,24.7c6.8,6.8,15,10.2,24.7,10.2h349.1c9.7,0,17.9-3.4,24.7-10.2c6.8-6.8,10.2-15,10.2-24.7V267.6
		C465.5,257.9,462.1,249.7,455.3,242.9z M349.1,232.7H162.9v-69.8c0-25.7,9.1-47.6,27.3-65.8c18.2-18.2,40.1-27.3,65.8-27.3
		c25.7,0,47.6,9.1,65.8,27.3c18.2,18.2,27.3,40.1,27.3,65.8V232.7z"/>
</g>
</svg>
