<?xml version="1.0" encoding="utf-8"?>
<!-- Generator: Adobe Illustrator 17.1.0, SVG Export Plug-In . SVG Version: 6.00 Build 0)  -->
<!DOCTYPE svg PUBLIC "-//W3C//DTD SVG 1.1//EN" "http://www.w3.org/Graphics/SVG/1.1/DTD/svg11.dtd">
<svg version="1.1" id="Layer_1" xmlns="http://www.w3.org/2000/svg" xmlns:xlink="http://www.w3.org/1999/xlink" x="0px" y="0px"
	 viewBox="0 0 612 792" enable-background="new 0 0 612 792" xml:space="preserve">
<path fill="#666666" d="M350.5,811c0,4.7,3.7,8.1,8.1,8.1s8.1-3.7,8.1-8.1s-3.7-8.1-8.1-8.1S350.5,806.6,350.5,811z M350.5,695v33.2
	h16.6v-15.9c28.2,4.1,49.9,28.2,49.9,57.3c0,32.2-26.1,58-58,58s-58-26.1-58-58c0-13.9,4.7-26.8,13.2-36.6l45.1,45.1l11.5-11.5
	l-56.3-56.3c-18.3,13.6-29.9,35.3-29.9,59.7c0,41.4,33.2,74.6,74.6,74.6s74.6-33.6,74.6-74.6c0-41.4-33.6-74.6-74.6-74.6h-8.8
	L350.5,695z M408.5,769.7c0-4.4-3.7-8.1-8.1-8.1s-8.1,3.7-8.1,8.1s3.7,8.1,8.1,8.1S408.5,774.1,408.5,769.7z M308.8,769.7
	c0,4.4,3.7,8.1,8.1,8.1s8.1-3.7,8.1-8.1s-3.7-8.1-8.1-8.1S308.8,765.3,308.8,769.7z"/>
<text transform="matrix(1 0 0 1 463.1205 812.4039)" fill="#666666" font-family="'Kefa-Bold'" font-size="128.9135">Tracky</text>
</svg>
