<svg xmlns="http://www.w3.org/2000/svg" viewBox="284 374 180.4 44.2"><path fill="#666" d="M303.6 408.2c0 1.4 1.1 2.4 2.4 2.4 1.3 0 2.4-1.1 2.4-2.4 0-1.3-1.1-2.4-2.4-2.4-1.3 0-2.4 1.1-2.4 2.4zm0-34.2v9.8h4.9v-4.7c8.3 1.2 14.7 8.3 14.7 16.9 0 9.5-7.7 17.1-17.1 17.1S289 405.4 289 396c0-4.1 1.4-7.9 3.9-10.8l13.3 13.3 3.4-3.4-16.6-16.6c-5.4 4-8.8 10.4-8.8 17.6 0 12.2 9.8 22 22 22s22-9.9 22-22c0-12.2-9.9-22-22-22h-2.6zm17.1 22c0-1.3-1.1-2.4-2.4-2.4-1.3 0-2.4 1.1-2.4 2.4 0 1.3 1.1 2.4 2.4 2.4 1.3 0 2.4-1.1 2.4-2.4zm-29.4 0c0 1.3 1.1 2.4 2.4 2.4 1.3 0 2.4-1.1 2.4-2.4 0-1.3-1.1-2.4-2.4-2.4-1.3 0-2.4 1.1-2.4 2.4z"/><text transform="translate(336.8 408.6)" fill="#666" font-family="'Kefa-Bold'" font-size="38">Tracky</text></svg>