<?xml version="1.0" encoding="utf-8"?>
<!-- Generator: Adobe Illustrator 17.1.0, SVG Export Plug-In . SVG Version: 6.00 Build 0)  -->
<!DOCTYPE svg PUBLIC "-//W3C//DTD SVG 1.1//EN" "http://www.w3.org/Graphics/SVG/1.1/DTD/svg11.dtd">
<svg version="1.1" id="Layer_1" xmlns="http://www.w3.org/2000/svg" xmlns:xlink="http://www.w3.org/1999/xlink" x="0px" y="0px"
	 viewBox="68.1 0 375.9 512" enable-background="new 68.1 0 375.9 512" xml:space="preserve">
<g>
	<path fill="#D4CD46" d="M343.1,363.6h-1l-21.6-0.8l-16,14.5c-5,4.5-11.5,7-18.2,7c-3.5,0-7-0.7-10.3-2l-20-8.2l-20,8.2
		c-3.3,1.4-6.8,2-10.3,2c-6.8,0-13.2-2.5-18.2-7l-16-14.5l-21.6,0.8h-1c-10.1,0-19.3-5.6-24.1-14.5l-10.1-19.1l-0.8-0.3v168.7
		c0,10.1,10.7,16.7,19.7,12.1l96.3-48.4c3.9-1.9,8.4-1.9,12.3,0l96.1,48.4c9,4.6,19.7-2,19.7-12.1V329.7l-0.8,0.3l-10.1,19.1
		C362.5,358,353.3,363.6,343.1,363.6L343.1,363.6z"/>
	<path fill="#D4CD46" d="M441.8,192.6c2.8-4.4,2.8-10,0-14.5l-11.5-18.3c-1.9-3-2.5-6.6-1.8-10.1l4.6-21.1c1.1-5.1-0.8-10.4-5-13.6
		l-17-13.2c-2.8-2.2-4.6-5.3-5.1-8.9l-3-21.4c-0.7-5.2-4.4-9.5-9.3-11.1l-20.5-6.6c-3.4-1.1-6.2-3.5-7.8-6.6L355.2,28
		c-2.3-4.5-7-7.2-12-7.2h-0.5l-21.6,0.8h-0.5c-3.4,0-6.6-1.3-9.2-3.5l-16-14.5c-2.6-2.3-5.8-3.5-9.2-3.5c-1.7,0-3.5,0.3-5.1,1
		l-20,8.2c-1.6,0.7-3.4,1-5.1,1c-1.7,0-3.5-0.3-5.1-1L231,1c-1.7-0.7-3.4-1-5.1-1c-3.3,0-6.6,1.2-9.2,3.5l-16,14.5
		c-2.5,2.3-5.8,3.5-9.2,3.5h-0.5l-21.6-0.8H169c-5,0-9.7,2.8-12,7.2l-10.1,19.1c-1.6,3.2-4.5,5.5-7.8,6.6l-20.5,6.6
		c-5,1.6-8.6,5.9-9.3,11.1l-3,21.4c-0.5,3.5-2.3,6.7-5.1,8.9L83.8,115c-4.1,3.2-6,8.5-5,13.6l4.6,21.1c0.8,3.5,0.1,7.1-1.8,10.1
		l-11.5,18.3c-2.8,4.4-2.8,10,0,14.5l11.5,18.3c1.9,3,2.5,6.6,1.8,10.1l-4.6,21.1c-1.1,5.1,0.8,10.4,5,13.6l17,13.2
		c2.8,2.2,4.6,5.3,5.1,8.9l3,21.4c0.7,5.2,4.4,9.5,9.3,11.1l15.6,5l5,1.6c3.4,1.1,6.2,3.5,7.8,6.6l10.1,19.1c2.3,4.5,7,7.2,12,7.2
		h0.5l21.6-0.8h0.5c3.4,0,6.6,1.3,9.2,3.5l16,14.5c2.6,2.3,5.8,3.5,9.2,3.5c1.7,0,3.5-0.3,5.1-1l20-8.2c1.6-0.7,3.4-1,5.1-1
		c1.7,0,3.5,0.3,5.1,1l20,8.2c1.7,0.7,3.4,1,5.1,1c3.3,0,6.6-1.2,9.2-3.5l16-14.5c2.5-2.3,5.8-3.5,9.2-3.5h0.5l21.6,0.8h0.5
		c5,0,9.7-2.8,12-7.2l10.1-19.1c1.6-3.2,4.5-5.5,7.8-6.6l5-1.6l15.6-5c5-1.6,8.6-5.9,9.3-11.1l3-21.4c0.5-3.5,2.3-6.7,5.1-8.9
		l17-13.2c4.1-3.2,6-8.5,5-13.6l-4.6-21.1c-0.8-3.5-0.1-7.1,1.8-10.1L441.8,192.6z M387.8,241c-2.8,6.5-5.9,12.7-9.6,18.7
		c-5.9,9.6-12.9,18.6-21,26.7c-13.1,13.1-28.4,23.4-45.4,30.6c-17.6,7.5-36.4,11.2-55.7,11.2c-19.3,0-38-3.8-55.7-11.2
		c-17-7.2-32.3-17.5-45.4-30.6c-8.1-8.1-15.1-17-21-26.7c-3.6-6-6.9-12.2-9.6-18.7c-7.5-17.6-11.2-36.4-11.2-55.7
		c0-19.3,3.8-38,11.2-55.7c7.2-17,17.5-32.3,30.6-45.4s28.4-23.4,45.4-30.6c17.6-7.5,36.4-11.2,55.7-11.2c19.3,0,38,3.8,55.7,11.2
		c17,7.2,32.3,17.5,45.4,30.6c13.1,13.1,23.4,28.4,30.6,45.4c7.5,17.6,11.2,36.4,11.2,55.7C399,204.6,395.2,223.4,387.8,241
		L387.8,241z"/>
	<path fill="#D4CD46" d="M256,58.7c-69.9,0-126.6,56.7-126.6,126.6c0,11.6,1.6,22.9,4.5,33.6C148.6,272.6,197.7,312,256,312
		s107.4-39.4,122.1-93.1c2.9-10.7,4.5-22,4.5-33.6C382.6,115.4,325.9,58.7,256,58.7L256,58.7z M312.4,244c2.5,11.5-9.8,20.5-20,14.7
		L256,238.1l-36.4,20.6c-10.2,5.8-22.5-3.2-20-14.7l8.7-41.1l-28.4-25.7l-3.2-2.9c-8.7-7.8-4.1-22.2,7.5-23.6l41.4-5.1l18-38.6
		c4.9-10.5,19.8-10.5,24.7,0l18,38.6l41.4,5.1c11.6,1.4,16.1,15.8,7.5,23.6l-3.2,2.9l-28.4,25.7L312.4,244L312.4,244z"/>
</g>
</svg>
