<?xml version="1.0" encoding="utf-8"?>
<!-- Generator: Adobe Illustrator 17.1.0, SVG Export Plug-In . SVG Version: 6.00 Build 0)  -->
<!DOCTYPE svg PUBLIC "-//W3C//DTD SVG 1.1//EN" "http://www.w3.org/Graphics/SVG/1.1/DTD/svg11.dtd">
<svg version="1.1" id="Capa_1" xmlns="http://www.w3.org/2000/svg" xmlns:xlink="http://www.w3.org/1999/xlink" x="0px" y="0px"
	 viewBox="0 47 512 418" enable-background="new 0 47 512 418" xml:space="preserve">
<g>
	<g>
		<path fill="#A9A9A9" d="M209,433.6c-0.7-1.7-0.9-3.2-0.7-4.4c0.2-1.2-0.5-2.2-2.3-2.9c-1.7-0.8-2.6-1.4-2.6-1.8
			c0-0.4-1.3-0.8-3.8-1c-2.5-0.2-3.8-0.3-3.8-0.3h-4.2h-3.6H94c-14.4,0-26.7-5.1-36.9-15.3c-10.2-10.2-15.3-22.5-15.3-36.9V141.1
			c0-14.4,5.1-26.7,15.3-36.9C67.4,93.9,79.7,88.8,94,88.8h104.5c2.8,0,5.1-0.7,6.7-2.1c1.6-1.4,2.7-3.5,3.3-6.4
			c0.5-2.8,0.9-5.4,1-7.7c0.1-2.3,0.1-5.2-0.2-8.7c-0.2-3.5-0.3-5.7-0.3-6.5c0-2.8-1-5.3-3.1-7.3c-2.1-2.1-4.5-3.1-7.3-3.1H94
			C68.1,47,46,56.2,27.6,74.6C9.2,93,0,115.2,0,141.1v229.9c0,25.9,9.2,48.1,27.6,66.4C46,455.8,68.1,465,94,465h104.5
			c2.8,0,5.1-0.7,6.7-2.1c1.6-1.4,2.7-3.5,3.3-6.4c0.5-2.8,0.9-5.4,1-7.7c0.1-2.3,0.1-5.2-0.2-8.6C209.1,436.7,209,434.5,209,433.6z
			"/>
		<path fill="#A9A9A9" d="M505.8,241.3L328.2,63.7c-4.1-4.1-9-6.2-14.7-6.2c-5.7,0-10.6,2.1-14.7,6.2c-4.1,4.1-6.2,9-6.2,14.7v94
			H146.3c-5.7,0-10.6,2.1-14.7,6.2c-4.1,4.1-6.2,9-6.2,14.7v125.4c0,5.7,2.1,10.6,6.2,14.7c4.1,4.1,9,6.2,14.7,6.2h146.3v94
			c0,5.7,2.1,10.6,6.2,14.7c4.1,4.1,9,6.2,14.7,6.2c5.7,0,10.6-2.1,14.7-6.2l177.6-177.6c4.1-4.1,6.2-9,6.2-14.7
			C512,250.3,509.9,245.4,505.8,241.3z"/>
	</g>
</g>
</svg>
