<svg xmlns="http://www.w3.org/2000/svg" viewBox="0 47 512 418"><g fill="#A9A9A9"><path d="M209 433.6c-.7-1.7-.9-3.2-.7-4.4.2-1.2-.5-2.2-2.3-2.9-1.7-.8-2.6-1.4-2.6-1.8 0-.4-1.3-.8-3.8-1-2.5-.2-3.8-.3-3.8-.3H94c-14.4 0-26.7-5.1-36.9-15.3-10.2-10.2-15.3-22.5-15.3-36.9V141.1c0-14.4 5.1-26.7 15.3-36.9C67.4 93.9 79.7 88.8 94 88.8h104.5c2.8 0 5.1-.7 6.7-2.1 1.6-1.4 2.7-3.5 3.3-6.4.5-2.8.9-5.4 1-7.7.1-2.3.1-5.2-.2-8.7-.2-3.5-.3-5.7-.3-6.5 0-2.8-1-5.3-3.1-7.3-2.1-2.1-4.5-3.1-7.3-3.1H94c-25.9 0-48 9.2-66.4 27.6C9.2 93 0 115.2 0 141.1V371c0 25.9 9.2 48.1 27.6 66.4C46 455.8 68.1 465 94 465h104.5c2.8 0 5.1-.7 6.7-2.1 1.6-1.4 2.7-3.5 3.3-6.4.5-2.8.9-5.4 1-7.7.1-2.3.1-5.2-.2-8.6-.2-3.5-.3-5.7-.3-6.6z"/><path d="M505.8 241.3L328.2 63.7c-4.1-4.1-9-6.2-14.7-6.2-5.7 0-10.6 2.1-14.7 6.2s-6.2 9-6.2 14.7v94H146.3c-5.7 0-10.6 2.1-14.7 6.2s-6.2 9-6.2 14.7v125.4c0 5.7 2.1 10.6 6.2 14.7s9 6.2 14.7 6.2h146.3v94c0 5.7 2.1 10.6 6.2 14.7s9 6.2 14.7 6.2c5.7 0 10.6-2.1 14.7-6.2l177.6-177.6c4.1-4.1 6.2-9 6.2-14.7 0-5.7-2.1-10.6-6.2-14.7z"/></g></svg>